<?xml version="1.0" encoding="UTF-8" standalone="no"?><!DOCTYPE svg PUBLIC "-//W3C//DTD SVG 1.1//EN" "http://www.w3.org/Graphics/SVG/1.1/DTD/svg11.dtd"><svg width="100%" height="100%" viewBox="0 0 1920 96" version="1.1" xmlns="http://www.w3.org/2000/svg" xmlns:xlink="http://www.w3.org/1999/xlink" xml:space="preserve" xmlns:serif="http://www.serif.com/" style="fill-rule:evenodd;clip-rule:evenodd;stroke-linecap:round;stroke-linejoin:round;stroke-miterlimit:1.5;"><path d="M-1.266,-3.259c0,21.239 45.204,46.269 65.222,55.496c15.489,7.14 38.847,18.1 55.333,25.7c13.163,6.067 40.676,9.663 52.848,12.742c6.894,1.744 74.501,1.729 87.693,1.373c17.355,-0.468 78.005,-9.748 88.359,-11.176c14.365,-1.982 57.618,-12.164 71.577,-15.381c20.346,-4.69 86.44,-22.214 104.521,-30.548c26.212,-12.083 84.752,-25.83 100.304,-27.995c19.098,-2.659 112.695,-6.843 123.378,-6.843c43.56,0 138.004,5.476 154.744,7.144c39.664,3.95 128.128,14.196 153.835,20.121c39.524,9.11 73.772,16.318 111.841,28.017c9.794,3.009 85.118,18.641 93.249,20.551c38.908,9.135 106.288,12.709 140.96,16.646c7.951,0.903 77.161,-0.41 97.481,-0.729c21.753,-0.342 133.973,-19.329 142.417,-21.924c8.715,-2.678 84.469,-18.087 93.185,-20.765c15.293,-4.7 52.077,-12.607 71.367,-18.535c15.113,-4.644 86.162,-18.191 111.686,-30.848" style="fill:#031c34;stroke:#000;stroke-width:1px;"/></svg>