<?xml version="1.0" encoding="UTF-8" standalone="no"?><!DOCTYPE svg PUBLIC "-//W3C//DTD SVG 1.1//EN" "http://www.w3.org/Graphics/SVG/1.1/DTD/svg11.dtd"><svg width="100%" height="100%" viewBox="0 0 537 117" version="1.1" xmlns="http://www.w3.org/2000/svg" xmlns:xlink="http://www.w3.org/1999/xlink" xml:space="preserve" xmlns:serif="http://www.serif.com/" style="fill-rule:evenodd;clip-rule:evenodd;stroke-linecap:round;stroke-linejoin:round;stroke-miterlimit:1.5;"><path d="M16.125,41.625c0,11.167 0.698,22.644 0.037,33.938c-0.62,10.609 -2.439,21.058 -7.162,30.937" style="fill:none;stroke:#000;stroke-width:9px;"/><path d="M16.5,39c4.601,0 19.918,-0.031 22.5,0c5.503,0.065 10.715,0.108 15,0c1.826,-0.046 0.75,16.642 0.75,20.25c0,1.736 1.039,17.739 -0.75,17.715c-7.305,-0.098 -15.257,0 -19,0" style="fill:none;stroke:#000;stroke-width:9px;"/><path d="M335.625,41.625c0,21.658 2.625,44.479 -7.125,64.875" style="fill:none;stroke:#000;stroke-width:9px;"/><path d="M336,39c4.601,0 17.423,-0.184 20,-0.014c4.753,0.316 12.465,-0.628 17.5,0.014c1.812,0.231 1,18.142 1,21.75c0,1.736 0.789,15.774 -1,15.75c-7.305,-0.098 -16.507,0 -18.75,0" style="fill:none;stroke:#000;stroke-width:9px;"/><path d="M480.164,74.144c0.012,-21.658 -2.6,-44.48 7.162,-64.871" style="fill:none;stroke:#000;stroke-width:9px;"/><path d="M480.162,77.519c-4.601,-0.003 -14.299,0.163 -16.875,-0.01c-4.753,-0.318 -16.341,0.633 -21.375,-0.012c-1.812,-0.232 -0.365,-17.392 -0.363,-21c0.001,-1.736 -1.029,-18.025 0.76,-18c7.305,0.102 16.507,0.01 18.75,0.011" style="fill:none;stroke:#000;stroke-width:9px;"/><path d="M73.125,39c-0.375,3.653 -0.171,9.418 -0.102,15c0.11,8.891 -0.273,15.281 -0.273,23.25" style="fill:none;stroke:#000;stroke-width:9px;"/><path d="M73.125,24.375c0,-2.024 0.375,0.116 0.375,-1.125" style="fill:none;stroke:#000;stroke-width:9px;"/><path d="M114,39c-9.741,0.375 -18.864,-0.601 -21.375,0.325c-1.314,0.484 -1.125,15.788 -1.125,18.311c0,2.579 -0.813,17.674 0.375,18.805c1.254,1.194 32.902,0.809 37.125,0.809" style="fill:none;stroke:#000;stroke-width:9px;"/><path d="M136.5,39.232c3.858,0 33.669,-0.299 37.5,-0.218c1.536,0.032 -0.31,4.129 0,10.718c0.245,5.203 1.505,11.732 0,11.782c-7.5,0.25 -13.75,-0.25 -18.75,0c-1.376,0.069 -0.47,13.413 0,15c3.25,10.979 4.5,16.84 11.25,29.986" style="fill:none;stroke:#000;stroke-width:9px;"/><path d="M144,76.514c9.887,0 8.517,0 22.5,0" style="fill:none;stroke:#000;stroke-width:9px;"/><path d="M209.927,61.96c2.502,0 13.633,0.617 18.25,0c1.119,-0.15 0.308,-22.5 0,-22.5c-2.885,0 -37.553,-0.653 -37.5,0c0.425,5.287 -0.089,13.394 0,15c0.25,4.534 -1.626,22.411 2.25,22.5c11.815,0.271 30.492,0 35.25,0" style="fill:none;stroke:#000;stroke-width:9px;"/><path d="M245.125,9c0,23.17 0.25,43.362 0.25,68.08" style="fill:none;stroke:#000;stroke-width:9px;"/><path d="M388.5,54c0,4.187 0.199,12.649 0,22.5c-0.021,1.045 34.702,0 37.5,0" style="fill:none;stroke:#000;stroke-width:9px;"/><path d="M426,39c0,7.542 0.018,30.365 0,37.5c-0.026,10.077 -0.75,16.596 4.5,30.75" style="fill:none;stroke:#000;stroke-width:9px;"/><path d="M497,76.965c0.135,-8.5 0.14,-10.28 0,-15c-0.141,-4.75 -1.912,-22.413 0,-22.5c14.88,-0.681 19.111,-0.465 30.6,-0.465" style="fill:none;stroke:#000;stroke-width:9px;"/><path d="M321,39c-6.5,0.25 -13.5,0 -22.5,0c-6,0 -8.101,0 -14.101,0l-2.25,0c0.327,9.596 -0.245,22.504 0,22.5c17.473,-0.263 27.156,0.406 37.5,0c1.257,-0.049 1.812,3.074 1.351,7.5c-0.399,3.834 0.363,7.817 -2.25,7.61c-7.294,-0.579 -22.758,0.89 -35.25,11.89" style="fill:none;stroke:#000;stroke-width:9px;"/><path d="M64.32,25.676c0,0.125 3.025,-4.944 5.243,-8.473" style="fill:none;stroke:#000;stroke-width:1.5px;"/><path d="M77.094,17.191c-0.112,-0.057 3.047,4.93 5.196,8.501" style="fill:none;stroke:#000;stroke-width:1.5px;"/></svg>