<?xml version="1.0" encoding="UTF-8" standalone="no"?><!DOCTYPE svg PUBLIC "-//W3C//DTD SVG 1.1//EN" "http://www.w3.org/Graphics/SVG/1.1/DTD/svg11.dtd"><svg width="100%" height="100%" viewBox="0 0 960 75" version="1.1" xmlns="http://www.w3.org/2000/svg" xmlns:xlink="http://www.w3.org/1999/xlink" xml:space="preserve" xmlns:serif="http://www.serif.com/" style="fill-rule:evenodd;clip-rule:evenodd;stroke-linejoin:round;stroke-miterlimit:1.41421;"><path d="M2.341,-0.555c0.035,25.832 -0.569,58.103 -0.285,58.103c6.215,0 166.132,-0.083 166.129,-0.35c-0.109,-13.787 -0.807,-33.614 0.07,-33.665c14.968,-0.86 150.251,-1.042 150.996,-0.701c0.284,0.13 -0.63,49.696 -0.081,49.699c59.992,0.333 251.291,0.552 251.288,0.114c-0.11,-15.329 -0.547,-28.072 0.947,-28.072c10.528,0 141.929,-0.757 163.164,-1.052c0.087,-0.001 0.393,-36.107 0.79,-36.469c0.089,-0.082 125.045,-0.292 125.682,0c0.668,0.305 -1.154,54.355 -0.766,54.354c31.959,-0.132 97.296,0.333 97.331,0.076c0.366,-2.644 -0.591,-38.56 0.053,-62.091" style="fill:#253d5d;"/><path d="M292.367,20.374l2.591,0.002l2.493,0.003l2.39,0.004l2.28,0.004l2.165,0.006l2.044,0.006l1.917,0.007l1.784,0.007l1.646,0.009l1.502,0.009l1.351,0.011l0.619,0.005l0.578,0.006l0.539,0.005l0.498,0.006l0.456,0.007l0.415,0.006l0.373,0.007l0.33,0.007l0.289,0.007l0.248,0.007l0.207,0.009l0.099,0.004l0.091,0.006l0.096,0.007l0.118,0.012l0.163,0.023l0.092,0.021l0.237,0.065l0.005,0.002l0.706,0.386l0.002,0.002l0.476,0.522l0.002,0.002l0.231,0.448l0.003,0.008l0.088,0.285l0.02,0.085l0.024,0.136l0.013,0.096l0.009,0.084l0.009,0.119l0.007,0.122l0.006,0.126l0.005,0.134l0.003,0.146l0.004,0.158l0.003,0.173l0.005,0.381l0.003,0.439l0.002,0.493l0.001,0.545l-0.001,0.596l-0.002,0.645l-0.003,0.692l-0.003,0.737l-0.005,0.779l-0.006,0.819l-0.007,0.858l-0.015,1.821l-0.018,1.947l-0.02,2.054l-0.022,2.145l-0.047,4.486l-0.024,2.306l-0.023,2.323l-0.023,2.322l-0.022,2.304l-0.02,2.266l-0.017,2.212l-0.008,1.079l-0.007,1.059l-0.006,1.036l-0.006,1.01l-0.004,0.983l-0.004,0.953l-0.002,0.922l-0.002,0.886l0,0.85l0.001,0.811l0.003,0.769l0.003,0.726l0.005,0.679l0.007,0.631l0.004,0.295l0.004,0.283l0.004,0.269l0.003,0.148l0.767,0.004l3.091,0.015l3.269,0.015l3.439,0.015l3.602,0.015l3.758,0.015l3.905,0.014l4.047,0.014l4.179,0.014l4.306,0.013l4.424,0.013l4.535,0.013l4.639,0.013l4.735,0.012l9.731,0.023l10.027,0.022l10.264,0.021l10.444,0.018l10.563,0.017l10.624,0.015l10.625,0.013l10.567,0.012l10.451,0.008l10.275,0.007l5.053,0.003l4.987,0.001l4.913,0.002l4.833,0l4.744,0l4.649,0l4.546,-0.002l4.435,-0.002l4.317,-0.003l4.193,-0.003l4.059,-0.004l3.92,-0.005l3.772,-0.006l3.618,-0.006l3.455,-0.007l3.286,-0.008l3.109,-0.009l2.924,-0.009l2.733,-0.01l2.533,-0.011l2.326,-0.012l2.113,-0.013l0.973,-0.007l0.917,-0.007l0.86,-0.007l0.801,-0.007l0.742,-0.008l0.682,-0.008l0.62,-0.008l0.44,-0.006l-0.005,-0.599l-0.014,-1.391l-0.014,-1.372l-0.03,-2.675l-0.014,-1.3l-0.013,-1.273l-0.012,-1.243l-0.009,-1.212l-0.005,-0.594l-0.003,-0.586l-0.003,-0.577l-0.002,-0.568l-0.001,-0.559l-0.001,-0.55l0,-0.541l0.002,-0.53l0.002,-0.521l0.003,-0.511l0.004,-0.5l0.006,-0.49l0.006,-0.479l0.008,-0.469l0.01,-0.457l0.01,-0.446l0.012,-0.435l0.014,-0.423l0.015,-0.412l0.017,-0.399l0.009,-0.197l0.009,-0.192l0.01,-0.19l0.011,-0.186l0.01,-0.184l0.012,-0.181l0.012,-0.177l0.012,-0.175l0.013,-0.172l0.013,-0.169l0.014,-0.165l0.015,-0.163l0.015,-0.16l0.016,-0.158l0.016,-0.154l0.017,-0.152l0.018,-0.148l0.019,-0.147l0.019,-0.143l0.021,-0.14l0.021,-0.14l0.022,-0.136l0.024,-0.134l0.024,-0.132l0.026,-0.131l0.028,-0.129l0.029,-0.127l0.03,-0.126l0.034,-0.126l0.035,-0.126l0.039,-0.126l0.042,-0.127l0.046,-0.128l0.048,-0.121l0.031,-0.073l0.03,-0.068l0.031,-0.069l0.034,-0.068l0.036,-0.07l0.039,-0.072l0.041,-0.072l0.045,-0.075l0.049,-0.076l0.053,-0.076l0.058,-0.079l0.063,-0.081l0.069,-0.082l0.075,-0.083l0.083,-0.084l0.09,-0.084l0.099,-0.083l0.108,-0.083l0.115,-0.079l0.126,-0.078l0.138,-0.073l0.145,-0.066l0.153,-0.059l0.161,-0.05l0.166,-0.04l0.169,-0.029l0.172,-0.018l0.133,-0.004l0.617,-0.001l0.75,-0.001l1.998,-0.007l2.622,-0.01l3.204,-0.014l3.744,-0.018l4.24,-0.021l4.695,-0.024l5.107,-0.027l5.476,-0.03l5.805,-0.032l6.089,-0.034l6.332,-0.036l6.533,-0.038l6.692,-0.04l6.807,-0.041l6.881,-0.042l6.912,-0.042l6.901,-0.044l6.848,-0.044l6.753,-0.044l6.614,-0.044l6.435,-0.043l6.212,-0.044l5.947,-0.042l5.64,-0.042l5.29,-0.04l4.899,-0.04l4.464,-0.037l2.056,-0.018l1.932,-0.018l1.802,-0.017l1.666,-0.017l1.527,-0.016l1.38,-0.015l0.09,-0.001l0.002,-0.138l0.015,-0.962l0.016,-1.095l0.017,-1.215l0.037,-2.738l0.042,-3.058l0.046,-3.274l0.024,-1.685l0.026,-1.7l0.026,-1.7l0.027,-1.689l0.028,-1.664l0.029,-1.626l0.029,-1.575l0.03,-1.51l0.016,-0.728l0.016,-0.706l0.016,-0.684l0.016,-0.66l0.016,-0.634l0.016,-0.607l0.017,-0.578l0.017,-0.547l0.017,-0.517l0.017,-0.483l0.018,-0.448l0.018,-0.413l0.018,-0.375l0.009,-0.176l0.009,-0.165l0.01,-0.156l0.01,-0.148l0.01,-0.139l0.01,-0.132l0.011,-0.126l0.013,-0.121l0.014,-0.12l0.018,-0.128l0.022,-0.13l0.021,-0.1l0.027,-0.108l0.042,-0.143l0.032,-0.086l0.107,-0.242l0.004,-0.009l0.246,-0.382l0.004,-0.006l0.656,-0.566l0.819,-0.283l0.007,-0.001l0.203,-0.02l0.047,-0.002l0.111,-0.003l0.132,-0.003l0.167,-0.002l0.45,-0.004l0.614,-0.005l0.772,-0.004l0.925,-0.005l2.29,-0.009l2.838,-0.01l3.341,-0.01l3.799,-0.01l4.211,-0.01l4.578,-0.01l4.899,-0.01l5.174,-0.009l5.403,-0.009l5.588,-0.008l5.726,-0.007l5.819,-0.006l5.867,-0.006l5.868,-0.004l5.824,-0.003l5.734,-0.002l5.599,-0.001l5.418,0.002l5.192,0.002l4.92,0.005l2.344,0.003l2.259,0.004l2.168,0.004l2.071,0.004l1.97,0.005l1.861,0.006l1.748,0.006l1.629,0.007l1.504,0.007l1.374,0.008l1.238,0.009l1.097,0.009l0.949,0.01l0.42,0.005l0.381,0.005l0.342,0.006l0.303,0.006l0.265,0.006l0.228,0.006l0.19,0.007l0.091,0.005l0.085,0.004l0.089,0.006l0.112,0.011l0.157,0.021l0.09,0.02l0.243,0.065l0.005,0.002l0.492,0.23l0.004,0.002l0.372,0.288l0.003,0.003l0.223,0.244l0.003,0.005l0.156,0.224l0.003,0.006l0.127,0.238l0.007,0.016l0.085,0.212l0.033,0.095l0.041,0.153l0.027,0.121l0.019,0.104l0.014,0.092l0.012,0.087l0.01,0.083l0.008,0.082l0.008,0.088l0.013,0.162l0.011,0.176l0.01,0.187l0.008,0.2l0.007,0.212l0.007,0.227l0.005,0.24l0.005,0.254l0.004,0.269l0.003,0.282l0.003,0.296l0.002,0.311l0.001,0.323l0,0.337l0,0.35l-0.001,0.364l-0.004,0.762l-0.006,0.811l-0.008,0.857l-0.01,0.901l-0.012,0.941l-0.015,0.981l-0.016,1.017l-0.017,1.05l-0.02,1.083l-0.021,1.112l-0.022,1.138l-0.024,1.162l-0.024,1.185l-0.026,1.204l-0.027,1.22l-0.056,2.482l-0.058,2.521l-0.06,2.539l-0.061,2.537l-0.061,2.517l-0.118,4.891l-0.056,2.335l-0.052,2.235l-0.048,2.115l-0.022,1.007l-0.02,0.968l-0.019,0.929l-0.018,0.887l-0.015,0.841l-0.014,0.794l-0.012,0.743l-0.01,0.691l-0.007,0.635l-0.006,0.576l0.838,-0.002l1.615,-0.004l1.656,-0.004l1.696,-0.002l1.734,-0.002l1.769,-0.001l1.802,-0.001l1.833,0l1.861,0.001l3.799,0.003l3.886,0.006l3.955,0.007l4.006,0.008l4.039,0.01l4.053,0.011l4.05,0.012l8.018,0.026l7.788,0.025l7.414,0.025l3.521,0.011l3.373,0.01l3.208,0.008l3.023,0.007l2.821,0.006l2.6,0.003l1.212,0l1.15,0.001l1.086,-0.001l1.019,-0.001l0.95,-0.002l0.879,-0.003l0.805,-0.003l0.729,-0.004l0.651,-0.005l0.027,0l0.002,-0.243l0.004,-0.493l0.001,-0.533l0.001,-0.573l-0.001,-0.611l-0.002,-0.649l-0.003,-0.683l-0.004,-0.718l-0.004,-0.752l-0.006,-0.784l-0.007,-0.815l-0.015,-1.721l-0.017,-1.832l-0.02,-1.936l-0.042,-4.149l-0.022,-2.196l-0.021,-2.266l-0.021,-2.328l-0.019,-2.381l-0.009,-1.208l-0.009,-1.218l-0.007,-1.227l-0.008,-1.235l-0.006,-1.243l-0.006,-1.248l-0.004,-1.253l-0.004,-1.257l-0.003,-1.26l-0.002,-1.262l0,-1.262l0,-1.263l0.002,-1.261l0.003,-1.259l0.005,-1.255l0.006,-1.251l0.008,-1.245l0.009,-1.239l0.011,-1.232l0.013,-1.223l0.014,-1.213l0.017,-1.203l0.018,-1.191l0.01,-0.591l0.011,-0.587l0.011,-0.585l0.011,-0.58l0.012,-0.577l0.013,-0.573l0.013,-0.569l0.014,-0.566l0.014,-0.561l0.015,-0.555l0.198,-0.874l0.518,-0.732l0.758,-0.478l0.884,-0.151l0.874,0.198l0.732,0.518l0.478,0.758l0.151,0.884l-0.015,0.552l-0.014,0.555l-0.013,0.56l-0.014,0.564l-0.012,0.568l-0.012,0.572l-0.011,0.576l-0.011,0.579l-0.011,0.584l-0.01,0.586l-0.018,1.183l-0.016,1.195l-0.015,1.206l-0.012,1.216l-0.011,1.224l-0.009,1.233l-0.008,1.24l-0.006,1.245l-0.005,1.25l-0.003,1.254l-0.002,1.256l0,1.258l0,1.258l0.002,1.258l0.003,1.256l0.003,1.253l0.005,1.25l0.006,1.245l0.006,1.239l0.007,1.233l0.008,1.224l0.009,1.216l0.009,1.205l0.019,2.378l0.021,2.324l0.021,2.264l0.022,2.195l0.042,4.149l0.019,1.937l0.018,1.835l0.015,1.724l0.007,0.819l0.005,0.787l0.005,0.756l0.004,0.724l0.003,0.689l0.002,0.655l0.001,0.62l-0.001,0.583l-0.002,0.546l-0.003,0.508l-0.004,0.469l-0.006,0.429l-0.004,0.202l-0.004,0.19l-0.005,0.181l-0.005,0.171l-0.006,0.163l-0.006,0.153l-0.007,0.145l-0.007,0.137l-0.009,0.131l-0.01,0.129l-0.013,0.127l-0.011,0.095l-0.129,0.526l-0.249,0.482l-0.001,0.002l-0.722,0.684l-0.002,0.001l-0.498,0.223l-0.009,0.003l-0.262,0.065l-0.076,0.014l-0.117,0.015l-0.085,0.009l-0.077,0.006l-0.122,0.008l-0.135,0.006l-0.147,0.005l-0.165,0.005l-0.182,0.004l-0.202,0.004l-0.223,0.004l-0.501,0.007l-0.583,0.006l-0.66,0.005l-0.737,0.004l-0.812,0.003l-0.884,0.003l-0.954,0.002l-1.023,0.001l-1.088,0l-1.153,0l-1.214,0l-2.603,-0.004l-2.824,-0.005l-3.025,-0.007l-3.208,-0.008l-3.375,-0.01l-3.522,-0.011l-7.414,-0.025l-7.788,-0.026l-8.017,-0.025l-4.049,-0.012l-4.052,-0.011l-4.038,-0.01l-4.004,-0.008l-3.953,-0.007l-3.884,-0.006l-3.797,-0.003l-1.859,-0.001l-1.832,0l-1.8,0.001l-1.767,0.001l-1.732,0.002l-1.694,0.002l-1.654,0.003l-1.612,0.005l-1.567,0.004l-1.522,0.006l-0.605,-0.079l-0.002,0l-0.884,-0.462l-0.002,-0.002l-0.406,-0.445l-0.002,-0.003l-0.171,-0.29l-0.003,-0.004l-0.124,-0.302l-0.004,-0.012l-0.06,-0.219l-0.018,-0.078l-0.02,-0.124l-0.013,-0.097l-0.009,-0.082l-0.006,-0.081l-0.009,-0.13l-0.006,-0.14l-0.005,-0.148l-0.004,-0.159l-0.003,-0.171l-0.002,-0.186l-0.002,-0.2l0,-0.215l0,-0.23l0,-0.246l0.003,-0.532l0.006,-0.591l0.008,-0.646l0.01,-0.7l0.012,-0.751l0.014,-0.8l0.015,-0.846l0.018,-0.891l0.019,-0.932l0.021,-0.972l0.022,-1.009l0.047,-2.119l0.052,-2.238l0.056,-2.337l0.118,-4.892l0.061,-2.517l0.061,-2.536l0.06,-2.537l0.059,-2.518l0.055,-2.479l0.027,-1.218l0.026,-1.201l0.024,-1.182l0.024,-1.16l0.022,-1.135l0.021,-1.107l0.019,-1.079l0.018,-1.046l0.016,-1.011l0.014,-0.974l0.012,-0.935l0.011,-0.892l0.008,-0.848l0.006,-0.8l0.003,-0.75l0.001,-0.355l0,-0.341l0,-0.328l-0.001,-0.313l-0.002,-0.299l-0.002,-0.283l-0.003,-0.206l-0.176,-0.003l-0.94,-0.009l-1.089,-0.01l-1.232,-0.008l-1.369,-0.008l-1.501,-0.007l-1.626,-0.007l-1.745,-0.006l-1.859,-0.006l-1.968,-0.005l-2.07,-0.005l-2.166,-0.004l-2.257,-0.003l-2.343,-0.003l-4.918,-0.005l-5.19,-0.003l-5.417,-0.001l-5.598,0.001l-5.733,0.001l-5.824,0.004l-5.867,0.004l-5.865,0.005l-5.818,0.007l-5.726,0.007l-5.587,0.008l-5.403,0.009l-5.173,0.009l-4.897,0.01l-4.577,0.009l-4.21,0.01l-3.798,0.011l-3.339,0.01l-2.836,0.01l-2.285,0.009l-0.922,0.005l-0.071,0l-0.013,0.323l-0.017,0.47l-0.017,0.504l-0.016,0.538l-0.017,0.57l-0.016,0.599l-0.016,0.628l-0.016,0.654l-0.016,0.679l-0.015,0.702l-0.016,0.723l-0.03,1.505l-0.029,1.569l-0.029,1.621l-0.028,1.66l-0.027,1.686l-0.026,1.698l-0.025,1.697l-0.025,1.683l-0.045,3.272l-0.042,3.058l-0.038,2.738l-0.017,1.218l-0.016,1.098l-0.015,0.966l-0.013,0.823l-0.013,0.665l-0.006,0.273l-0.006,0.23l-0.005,0.191l-0.006,0.151l-0.004,0.079l-0.007,0.101l-0.008,0.069l-0.032,0.206l-0.001,0.005l-0.317,0.78l-0.001,0.002l-0.505,0.558l-0.658,0.366l-0.741,0.133l-1.076,0.014l-1.234,0.015l-1.384,0.015l-1.529,0.016l-1.669,0.017l-1.803,0.017l-1.934,0.017l-2.057,0.019l-4.467,0.037l-4.9,0.039l-5.292,0.041l-5.641,0.041l-5.948,0.043l-6.212,0.043l-6.436,0.044l-6.615,0.044l-6.753,0.044l-6.848,0.044l-6.902,0.043l-6.913,0.043l-6.881,0.042l-6.808,0.041l-6.692,0.04l-6.533,0.038l-6.333,0.036l-6.09,0.034l-5.805,0.032l-5.477,0.03l-5.107,0.027l-4.696,0.024l-4.241,0.021l-3.745,0.018l-3.206,0.014l-2.625,0.01l-1.829,0.006l-0.011,0.086l-0.014,0.117l-0.013,0.121l-0.014,0.126l-0.013,0.13l-0.013,0.134l-0.012,0.139l-0.012,0.144l-0.012,0.147l-0.011,0.151l-0.011,0.156l-0.011,0.16l-0.01,0.163l-0.01,0.168l-0.01,0.171l-0.009,0.174l-0.009,0.179l-0.008,0.181l-0.016,0.376l-0.014,0.39l-0.013,0.402l-0.011,0.416l-0.011,0.429l-0.009,0.442l-0.007,0.454l-0.007,0.466l-0.005,0.477l-0.004,0.49l-0.003,0.5l-0.003,0.512l-0.001,0.522l0,0.533l0,0.543l0.002,0.552l0.002,0.563l0.003,0.572l0.003,0.581l0.004,0.589l0.01,1.207l0.012,1.238l0.013,1.27l0.014,1.298l0.029,2.676l0.015,1.374l0.013,1.395l0.013,1.414l0.011,1.431l-0.161,0.863l0,0.001l-0.293,0.527l-0.421,0.432l-0.001,0.001l-0.594,0.339l-0.007,0.003l-0.308,0.095l-0.083,0.019l-0.145,0.024l-0.138,0.016l-0.12,0.009l-0.112,0.007l-0.117,0.006l-0.128,0.006l-0.143,0.005l-0.32,0.01l-0.383,0.009l-0.443,0.009l-0.506,0.008l-0.567,0.009l-0.627,0.008l-0.688,0.008l-0.747,0.007l-0.806,0.008l-0.863,0.007l-0.92,0.007l-0.977,0.007l-2.117,0.012l-2.33,0.012l-2.537,0.012l-2.735,0.01l-2.927,0.009l-3.11,0.009l-3.288,0.008l-3.457,0.007l-3.618,0.006l-3.774,0.006l-3.921,0.005l-4.06,0.004l-4.193,0.003l-4.319,0.003l-4.436,0.002l-4.546,0.001l-4.649,0.001l-4.745,0l-4.834,0l-4.914,-0.002l-4.987,-0.002l-5.054,-0.002l-10.276,-0.007l-10.451,-0.009l-10.569,-0.011l-10.625,-0.013l-10.625,-0.015l-10.564,-0.017l-10.444,-0.019l-10.266,-0.02l-10.028,-0.022l-9.731,-0.023l-4.736,-0.013l-4.64,-0.012l-4.536,-0.013l-4.424,-0.013l-4.307,-0.014l-4.18,-0.013l-4.047,-0.014l-3.907,-0.015l-3.758,-0.014l-3.603,-0.015l-3.441,-0.015l-3.27,-0.015l-3.093,-0.015l-2.907,-0.016l-0.399,-0.037l-0.004,0l-0.68,-0.239l-0.003,-0.002l-0.449,-0.317l-0.003,-0.003l-0.266,-0.285l-0.003,-0.004l-0.215,-0.327l-0.006,-0.012l-0.126,-0.275l-0.039,-0.101l-0.049,-0.169l-0.03,-0.128l-0.019,-0.101l-0.015,-0.09l-0.012,-0.082l-0.01,-0.083l-0.015,-0.142l-0.013,-0.151l-0.011,-0.157l-0.01,-0.167l-0.009,-0.178l-0.008,-0.189l-0.008,-0.203l-0.007,-0.215l-0.007,-0.228l-0.006,-0.241l-0.005,-0.255l-0.006,-0.266l-0.004,-0.28l-0.005,-0.292l-0.004,-0.305l-0.006,-0.644l-0.005,-0.691l-0.004,-0.736l-0.003,-0.778l-0.001,-0.818l0.001,-0.857l0.001,-0.892l0.002,-0.926l0.004,-0.958l0.004,-0.987l0.006,-1.014l0.006,-1.038l0.007,-1.062l0.008,-1.082l0.018,-2.215l0.019,-2.27l0.022,-2.306l0.023,-2.324l0.024,-2.324l0.023,-2.306l0.047,-4.486l0.022,-2.144l0.02,-2.052l0.018,-1.944l0.016,-1.817l0.006,-0.854l0.006,-0.816l0.005,-0.776l0.004,-0.731l0.002,-0.686l0.002,-0.638l0.001,-0.588l-0.001,-0.481l-0.304,-0.004l-0.491,-0.006l-0.534,-0.006l-0.574,-0.005l-0.613,-0.006l-1.346,-0.01l-1.496,-0.009l-1.642,-0.009l-1.781,-0.007l-1.913,-0.007l-2.042,-0.006l-2.162,-0.006l-2.278,-0.004l-2.388,-0.004l-2.491,-0.003l-2.59,-0.002l-2.682,-0.001l-2.767,0l-2.849,0l-2.923,0.001l-2.992,0.002l-3.054,0.003l-3.112,0.004l-3.163,0.005l-3.209,0.006l-3.248,0.006l-3.282,0.007l-3.31,0.008l-3.331,0.009l-3.348,0.01l-3.359,0.011l-3.363,0.012l-3.362,0.012l-3.354,0.014l-3.342,0.014l-3.323,0.015l-3.298,0.017l-3.268,0.017l-3.232,0.018l-3.189,0.018l-3.142,0.02l-3.088,0.021l-3.028,0.021l-2.962,0.023l-2.891,0.024l-2.814,0.024l-2.731,0.025l-2.642,0.027l-2.548,0.027l-2.447,0.028l-1.183,0.014l-1.157,0.015l-1.128,0.015l-1.099,0.015l-1.07,0.015l-1.04,0.016l-1.008,0.016l-0.977,0.016l-0.944,0.016l-0.911,0.017l-0.877,0.017l-0.842,0.017l-0.806,0.017l-0.77,0.018l-0.733,0.017l-0.695,0.018l-0.656,0.019l-0.617,0.018l-0.576,0.019l-0.422,0.014l0,0.004l-0.008,0.152l-0.007,0.159l-0.006,0.164l-0.007,0.17l-0.006,0.174l-0.011,0.369l-0.009,0.389l-0.008,0.409l-0.007,0.428l-0.006,0.447l-0.004,0.465l-0.003,0.482l-0.001,0.499l-0.001,0.515l0.001,0.53l0.001,0.545l0.003,0.558l0.003,0.573l0.005,0.584l0.005,0.597l0.006,0.609l0.007,0.619l0.008,0.63l0.008,0.639l0.019,1.306l0.021,1.337l0.022,1.363l0.024,1.385l0.024,1.403l0.051,2.838l0.025,1.425l0.024,1.424l0.023,1.417l0.022,1.406l0.02,1.391l0.018,1.369l0.008,0.676l0.007,0.669l0.006,0.661l0.006,0.652l-0.079,0.617l-0.241,0.573l-0.001,0.001l-0.364,0.466l-0.472,0.358l-0.001,0l-0.51,0.215l-0.005,0.002l-0.308,0.065l-0.086,0.013l-0.129,0.01l-0.094,0.006l-0.09,0.004l-0.098,0.004l-0.217,0.007l-0.267,0.006l-0.317,0.006l-0.367,0.006l-0.419,0.006l-0.468,0.006l-0.519,0.005l-1.183,0.011l-1.374,0.011l-1.557,0.011l-1.733,0.01l-1.902,0.01l-2.065,0.01l-2.22,0.01l-2.368,0.009l-2.508,0.009l-2.643,0.009l-2.769,0.008l-5.888,0.017l-6.308,0.016l-6.672,0.014l-6.976,0.014l-7.224,0.013l-7.415,0.013l-7.548,0.011l-7.623,0.011l-7.641,0.009l-7.603,0.009l-7.505,0.009l-7.352,0.007l-14.011,0.013l-12.705,0.011l-10.941,0.007l-8.717,0.006l-6.033,0.003l-2.89,0.001l-0.501,-0.055l-0.001,-0.001l-0.788,-0.339l-0.002,-0.001l-0.572,-0.554l-0.003,-0.005l-0.254,-0.449l-0.004,-0.008l-0.088,-0.245l-0.025,-0.084l-0.031,-0.137l-0.02,-0.114l-0.018,-0.129l-0.012,-0.118l-0.008,-0.107l-0.007,-0.105l-0.005,-0.109l-0.005,-0.115l-0.004,-0.121l-0.004,-0.13l-0.003,-0.14l-0.006,-0.301l-0.005,-0.341l-0.004,-0.379l-0.002,-0.416l-0.002,-0.453l0,-0.489l0,-0.525l0.001,-0.561l0.002,-0.595l0.002,-0.629l0.008,-1.354l0.01,-1.479l0.013,-1.596l0.015,-1.707l0.016,-1.811l0.018,-1.907l0.04,-4.076l0.043,-4.378l0.022,-2.284l0.021,-2.339l0.021,-2.385l0.021,-2.426l0.02,-2.459l0.018,-2.485l0.017,-2.503l0.015,-2.516l0.007,-1.259l0.006,-1.26l0.006,-1.259l0.005,-1.258l0.004,-1.256l0.004,-1.252l0.003,-1.248l0.002,-1.243l0.001,-1.237l0.001,-1.23l-0.001,-1.222l-0.001,-1.214l0.174,-0.88l0.497,-0.746l0.745,-0.498l0.879,-0.176l0.88,0.174l0.746,0.497l0.498,0.745l0.176,0.879l0.001,1.216l0.001,1.226l-0.001,1.233l-0.001,1.24l-0.003,1.246l-0.002,1.25l-0.004,1.255l-0.005,1.258l-0.005,1.26l-0.005,1.262l-0.006,1.262l-0.007,1.262l-0.015,2.518l-0.017,2.507l-0.019,2.487l-0.019,2.462l-0.021,2.428l-0.021,2.387l-0.022,2.34l-0.022,2.286l-0.042,4.378l-0.04,4.075l-0.018,1.906l-0.017,1.809l-0.014,1.704l-0.013,1.592l-0.01,1.474l-0.008,1.348l-0.002,0.623l-0.002,0.59l-0.001,0.554l0,0.518l0,0.48l0.001,0.371l0.666,0l6.032,-0.003l8.717,-0.006l10.94,-0.007l12.705,-0.011l14.011,-0.013l7.351,-0.007l7.505,-0.009l7.602,-0.009l7.641,-0.009l7.623,-0.011l7.547,-0.011l7.414,-0.013l7.223,-0.013l6.976,-0.013l6.67,-0.015l6.307,-0.016l5.887,-0.016l2.767,-0.009l2.642,-0.009l2.507,-0.009l2.366,-0.009l2.218,-0.01l2.062,-0.01l1.9,-0.01l1.73,-0.01l1.552,-0.011l1.368,-0.01l1.176,-0.011l0.482,-0.006l-0.005,-0.378l-0.017,-1.363l-0.02,-1.384l-0.022,-1.401l-0.023,-1.414l-0.025,-1.421l-0.024,-1.424l-0.051,-2.838l-0.025,-1.404l-0.023,-1.388l-0.023,-1.367l-0.02,-1.342l-0.019,-1.311l-0.008,-0.644l-0.008,-0.634l-0.007,-0.624l-0.006,-0.614l-0.006,-0.602l-0.004,-0.591l-0.004,-0.579l-0.003,-0.567l-0.001,-0.553l-0.001,-0.539l0.001,-0.526l0.001,-0.51l0.003,-0.495l0.005,-0.479l0.005,-0.463l0.008,-0.446l0.008,-0.428l0.01,-0.412l0.012,-0.391l0.006,-0.192l0.007,-0.185l0.008,-0.18l0.007,-0.177l0.009,-0.171l0.009,-0.167l0.009,-0.162l0.01,-0.158l0.011,-0.154l0.011,-0.149l0.012,-0.145l0.012,-0.14l0.014,-0.137l0.014,-0.134l0.015,-0.131l0.017,-0.128l0.018,-0.126l0.02,-0.125l0.023,-0.125l0.026,-0.128l0.03,-0.132l0.034,-0.128l0.025,-0.083l0.025,-0.078l0.028,-0.082l0.033,-0.087l0.04,-0.095l0.048,-0.103l0.058,-0.113l0.072,-0.125l0.092,-0.138l0.117,-0.153l0.075,-0.082l0.164,-0.161l0.009,-0.009l0.213,-0.169l0.01,-0.007l0.272,-0.165l0.01,-0.005l0.333,-0.138l0.01,-0.004l0.382,-0.09l0.01,-0.001l0.206,-0.021l0.185,-0.01l0.199,-0.01l0.209,-0.011l0.221,-0.01l0.468,-0.02l0.509,-0.019l0.548,-0.02l0.589,-0.019l0.627,-0.018l0.665,-0.019l0.703,-0.018l0.74,-0.018l0.776,-0.018l0.812,-0.017l0.848,-0.017l0.881,-0.017l0.915,-0.017l0.948,-0.016l0.981,-0.016l1.011,-0.016l1.043,-0.016l1.073,-0.015l1.102,-0.016l1.131,-0.014l1.159,-0.015l1.186,-0.015l2.45,-0.028l2.551,-0.027l2.645,-0.026l2.734,-0.026l2.817,-0.024l2.894,-0.024l2.964,-0.022l3.031,-0.022l3.089,-0.021l3.144,-0.019l3.191,-0.019l3.233,-0.018l3.269,-0.017l3.3,-0.016l3.324,-0.016l3.344,-0.014l3.355,-0.013l3.363,-0.013l3.365,-0.012l3.359,-0.01l3.35,-0.01l3.333,-0.009l3.31,-0.009l3.283,-0.007l3.25,-0.006l3.209,-0.006l3.164,-0.005l3.113,-0.003l3.056,-0.003l2.993,-0.003l2.925,-0.001l2.849,0l2.77,0l2.683,0.001Z"/></svg>