<?xml version="1.0" encoding="UTF-8" standalone="no"?><!DOCTYPE svg PUBLIC "-//W3C//DTD SVG 1.1//EN" "http://www.w3.org/Graphics/SVG/1.1/DTD/svg11.dtd"><svg width="100%" height="100%" viewBox="0 0 349 134" version="1.1" xmlns="http://www.w3.org/2000/svg" xmlns:xlink="http://www.w3.org/1999/xlink" xml:space="preserve" xmlns:serif="http://www.serif.com/" style="fill-rule:evenodd;clip-rule:evenodd;stroke-linecap:round;stroke-linejoin:round;stroke-miterlimit:1.5;"><path d="M9,11.524c0,25.526 0.25,47.769 0.25,75" style="fill:none;stroke:#000;stroke-width:9px;"/><path d="M92.356,84.005c-0.014,-25.038 2.596,-51.422 -7.168,-74.996" style="fill:none;stroke:#000;stroke-width:9px;"/><path d="M92.358,85.14c4.406,-0.002 13.691,0.156 16.157,-0.009c4.551,-0.304 15.646,0.605 20.467,-0.012c1.734,-0.222 0.349,-16.626 0.347,-20.075c-0.001,-1.66 0.985,-17.231 -0.728,-17.207c-6.994,0.097 -15.805,0.009 -17.952,0.01" style="fill:none;stroke:#000;stroke-width:9px;"/><path d="M53.517,69.05c-6.199,0 -15.595,0.14 -20.114,0.75c-1.095,0.148 -0.302,15.507 0,15.507c2.824,0 36.757,0.645 36.706,0c-0.417,-5.23 0.086,-13.25 0,-14.838c-0.245,-4.485 1.591,-22.168 -2.203,-22.256c-11.565,-0.269 -29.846,0 -34.503,0" style="fill:none;stroke:#000;stroke-width:9px;"/><path d="M153.755,86.524c0.161,-8.389 0.167,-10.145 0,-14.803c-0.168,-4.688 -2.277,-22.12 0,-22.206c17.725,-0.672 22.764,-0.459 36.45,-0.459" style="fill:none;stroke:#000;stroke-width:9px;"/><path d="M191.705,64.024c0,4.188 0.199,12.649 0,22.5c-0.021,1.046 34.702,0 37.5,0" style="fill:none;stroke:#000;stroke-width:9px;"/><path d="M229.205,49.024c0,8.289 0.018,33.368 0,41.209c-0.026,11.073 -0.75,18.238 4.5,33.791" style="fill:none;stroke:#000;stroke-width:9px;"/><path d="M301.817,53.524c0,12.136 0.698,24.608 0.038,36.881c-0.621,11.529 -2.44,22.883 -7.163,33.619" style="fill:none;stroke:#000;stroke-width:9px;"/><path d="M302.192,50.899c4.602,0 19.918,-0.03 22.5,0c5.503,0.065 10.715,0.108 15,0" style="fill:none;stroke:#000;stroke-width:9px;"/><path d="M308.942,76.413c9.887,0 8.517,0 22.5,0" style="fill:none;stroke:#000;stroke-width:9px;"/><path d="M248.543,86.524c-0.119,-8.551 -0.305,-12.731 -0.305,-17.198c0,-3.861 -1.185,-16.838 -1.219,-19.105c-0.028,-1.773 13.782,-0.298 17.374,-0.463c6.152,-0.283 17.943,-1.499 19.813,0c0.366,0.293 -0.029,17.222 0.073,18.591c0.579,7.788 -0.073,15.571 -0.073,18.175" style="fill:none;stroke:#000;stroke-width:9px;"/></svg>