<?xml version="1.0" encoding="UTF-8" standalone="no"?><!DOCTYPE svg PUBLIC "-//W3C//DTD SVG 1.1//EN" "http://www.w3.org/Graphics/SVG/1.1/DTD/svg11.dtd"><svg width="100%" height="100%" viewBox="0 0 537 117" version="1.1" xmlns="http://www.w3.org/2000/svg" xmlns:xlink="http://www.w3.org/1999/xlink" xml:space="preserve" xmlns:serif="http://www.serif.com/" style="fill-rule:evenodd;clip-rule:evenodd;stroke-linejoin:round;stroke-miterlimit:1.41421;"><g><path d="M16.457,37.137c2.043,0.229 3.811,1.796 4.117,3.813c0.178,1.175 0.052,1.531 0.055,2.223c0.012,1.913 0.04,3.825 0.074,5.738c0.373,19.661 1.157,39.957 -6.952,58.037c-0.964,2.15 -2.618,4.212 -5.065,4.041c-3.132,-0.219 -4.897,-3.951 -3.442,-7.076c8.762,-19.021 6.473,-41.513 6.383,-61.223c0,0 -0.149,-1.262 0.197,-2.387c0.593,-1.93 2.557,-3.241 4.633,-3.166Z" style="fill:#fff;fill-rule:nonzero;stroke:#000;stroke-width:1px;"/><path d="M35.046,34.487c6.012,0.007 12.031,0.148 18.048,0.032l1.138,-0.017c1.071,0.089 1.221,0.194 1.658,0.38c3.055,1.301 3.508,5.596 3.623,8.621c0.199,5.245 -0.255,10.478 -0.263,15.738c-0.008,5.324 0.766,10.737 0.019,16.35c-0.339,2.546 -1.653,5.451 -4.653,5.837c-1.456,0.188 -1.844,0.022 -2.722,0.014c-5.379,-0.043 -10.757,0.003 -16.133,0.022c0,0 -3.968,-0.166 -4.987,-2.954c-0.923,-2.525 0.93,-5.687 3.697,-6.014c1.393,-0.165 2.024,-0.035 3.024,-0.04c3.897,-0.021 7.789,-0.042 11.685,-0.031l1.32,0.007c0.265,-6.24 -0.305,-12.289 -0.081,-18.818c0.111,-3.355 0.233,-6.712 0.088,-10.058c-0.713,0.005 -1.426,0.008 -2.14,0.009c-9.89,0.008 -19.782,-0.077 -29.681,-0.066l-2.445,-0.006c-3.329,-0.29 -5.507,-4.619 -3.19,-7.384c0.845,-1.007 1.737,-1.558 3.446,-1.609c6.18,-0.004 12.348,-0.016 18.549,-0.013Z" style="fill:#fff;fill-rule:nonzero;stroke:#000;stroke-width:1px;"/><path d="M335.957,37.137c2.043,0.229 3.811,1.796 4.117,3.813c0.206,1.358 0.053,1.822 0.058,2.678c0.163,21.222 1.944,43.164 -6.631,62.757c-1.002,2.288 -2.498,4.602 -4.978,4.615c-3.25,0.016 -5.338,-3.735 -3.769,-7.107c8.808,-19.147 6.459,-41.844 6.373,-61.236c0,0 -0.147,-1.237 0.197,-2.354c0.593,-1.93 2.557,-3.241 4.633,-3.166Z" style="fill:#fff;fill-rule:nonzero;stroke:#000;stroke-width:1px;"/><path d="M369.33,34.271c1.194,0.008 2.388,0.041 3.578,0.143c1.809,0.154 3.593,0.705 4.681,2.385c2.426,3.749 1.606,8.463 1.591,13.225c-0.01,3.522 -0.15,7.044 -0.179,10.573c-0.017,5.036 0.589,9.815 -0.199,14.768c-0.44,2.764 -1.825,5.575 -5.291,5.635c-6.102,-0.075 -12.173,-0.028 -18.246,-0.001c0,0 -3.777,-0.321 -4.74,-2.951c-0.954,-2.603 1.049,-5.864 3.954,-6.04c5.065,-0.306 10.306,-0.067 15.517,-0.041l0.102,0.001c0.192,-3.592 -0.001,-7.195 -0.092,-10.79c-0.127,-5.967 0.42,-11.877 0.015,-17.818l-0.006,-0.081c-10.972,-0.185 -21.604,0.157 -32.497,0.217c-3.437,0.015 -5.324,-1.055 -5.895,-3.453c-0.604,-2.532 1.387,-5.373 4.11,-5.535c7.007,-0.416 14.285,-0.341 20.939,0.01c0.201,0.009 0.201,0.009 0.402,0.016c4.079,0.121 8.13,-0.272 12.256,-0.263Z" style="fill:#fff;fill-rule:nonzero;stroke:#000;stroke-width:1px;"/><path d="M487.642,4.784c1.028,0.111 1.191,0.222 1.618,0.426c2.572,1.224 2.734,4.617 1.506,7.341c-8.481,19.028 -6.178,41.441 -6.103,60.563c0,0 0.125,2.661 -1.199,4.089c-2.24,2.416 -7.222,1.101 -7.75,-2.387c-0.205,-1.358 -0.051,-1.822 -0.056,-2.678c-0.151,-21.303 -1.941,-43.332 6.781,-63.01c0.97,-2.191 2.376,-4.251 4.867,-4.355c0.112,0.004 0.224,0.007 0.336,0.011Z" style="fill:#fff;fill-rule:nonzero;stroke:#000;stroke-width:1px;"/><path d="M443.054,34.007c5.832,0.065 11.664,0.025 17.493,0.002c0,0 4.577,0.557 4.981,3.97c0.297,2.505 -1.819,4.948 -4.462,5.029c-5.085,0.008 -10.167,0.053 -15.256,0.024l0,0c-0.288,6.802 0.271,13.672 -0.048,20.107c-0.16,3.323 -0.332,6.65 -0.239,9.977l0.003,0.097c11.121,0.206 22.17,-0.166 34.184,-0.194c1.105,0 4.226,0.917 4.83,3.46c0.602,2.532 -1.391,5.372 -4.114,5.532c-5.709,0.336 -12.049,0.249 -17.809,-0.033c-0.219,-0.009 -0.218,-0.009 -0.436,-0.016c-6.868,-0.187 -13.81,0.778 -20.537,0.035c0,0 -2.57,-0.344 -3.828,-2.312c-2.165,-3.387 -1.374,-7.655 -1.264,-11.55c0.11,-3.882 0.484,-7.742 0.497,-11.635c0.018,-5.455 -0.751,-10.959 -0.011,-16.587c0.338,-2.573 1.658,-5.488 4.646,-5.878c0.939,-0.123 1.003,-0.033 1.37,-0.028Z" style="fill:#fff;fill-rule:nonzero;stroke:#000;stroke-width:1px;"/><path d="M73.309,34.504c0.849,0.059 1.082,0.151 1.526,0.334c3.216,1.321 2.589,5.778 2.572,9.526c-0.049,10.903 -0.141,21.826 -0.157,32.893c0,0 -0.539,3.344 -2.967,4.224c-2.622,0.95 -5.861,-1.071 -6.026,-3.976c-0.655,-11.548 -0.066,-24.498 0.174,-35.075c0.02,-0.885 0.054,-1.77 0.113,-2.653c0.18,-2.649 1.277,-5.126 4.503,-5.276c0.087,0.001 0.174,0.002 0.262,0.003Z" style="fill:#fff;fill-rule:nonzero;stroke:#000;stroke-width:1px;"/><path d="M73.545,18.75c2.805,0.042 5.072,2.993 4.277,6.038c-0.093,0.355 -0.24,0.704 -0.419,1.031c-0.116,0.208 -0.095,0.217 -0.137,0.316c-1.174,2.725 -5.294,3.581 -7.418,1.324c-1.843,-1.959 -1.842,-5.629 0.595,-7.539c0.902,-0.707 1.972,-1.175 3.102,-1.17Zm-3.91,7.362c0,0 -0.016,-0.023 0,0Z" style="fill:#fff;fill-rule:nonzero;stroke:#000;stroke-width:1px;"/><path d="M97.63,34.412c5.393,0.027 10.785,0.288 16.206,0.091c0,0 4.535,0.872 4.661,4.333c0.08,2.189 -1.646,4.278 -3.812,4.612c-0.816,0.125 -1.024,0.067 -1.46,0.081c-5.481,0.156 -10.961,-0.152 -16.451,-0.115c0,0 -0.457,-0.448 -0.528,0.516c-0.659,9.761 -0.806,19.697 -0.469,28.543c10.86,0.667 21.825,0.33 32.733,0.278c0,0 4.766,0.657 4.982,4.227c0.136,2.259 -1.688,4.47 -3.96,4.74c-1.472,0.176 -2.177,0.039 -3.26,0.046c-11.135,0.069 -22.313,0.74 -33.299,-0.493c-2.585,-0.291 -5.356,-1.786 -5.914,-5.24c-1.127,-6.97 -0.061,-14.309 -0.068,-21.595c0.003,-4.679 -0.128,-9.381 0.574,-14.012c0.374,-2.462 1.553,-4.993 4.675,-5.654c1.762,-0.373 3.593,-0.36 5.39,-0.358Z" style="fill:#fff;fill-rule:nonzero;stroke:#000;stroke-width:1px;"/><path d="M172.288,34.501c0.695,0.001 1.582,0.01 1.582,0.01c2.849,0.05 5.228,2.588 5.249,5.534c0.027,3.805 -0.812,7.632 -0.482,11.562c0.104,1.238 0.231,2.474 0.348,3.71c0.03,0.325 0.059,0.65 0.087,0.975c0.039,0.474 0.076,0.949 0.103,1.424c0.018,0.307 0.033,0.614 0.042,0.922c0.09,3.104 -0.934,7.165 -5.032,7.372c-4.994,0.159 -9.951,-0.029 -14.978,-0.067l-0.186,0c-0.013,3.147 0.067,6.343 0.572,9.379c0,0 1.104,3.818 2.026,6.958c2.257,7.654 5.25,15.072 8.886,22.168c0,0 1.044,2.948 -0.494,4.867c-1.852,2.31 -5.952,2.02 -7.516,-0.763c-4.954,-9.668 -8.39,-20.029 -11.569,-30.79c0,0 -1.303,-9.985 -0.754,-15.045c0.265,-2.435 1.476,-5.065 4.143,-5.611c0.984,-0.201 1.078,-0.104 1.485,-0.12c4.702,-0.157 9.398,0.109 14.099,0.099l0.208,-0.001c-0.363,-4.391 -0.854,-8.767 -0.412,-13.207l0.039,-0.374c-10.92,0.029 -21.797,0.181 -32.784,0.228c-2.729,0.005 -7.022,-4.407 -3.577,-7.735c1.218,-1.177 3.053,-1.261 4.827,-1.271c11.37,-0.073 22.787,-0.232 34.088,-0.224Z" style="fill:#fff;fill-rule:nonzero;stroke:#000;stroke-width:1px;"/><path d="M166.699,72.018c3.811,0.254 5.933,6.342 1.906,8.473c-0.47,0.249 -0.983,0.413 -1.509,0.483c-0.198,0.027 -0.397,0.035 -0.596,0.04l-22.5,0c-3.434,-0.076 -5.884,-4.674 -3.353,-7.501c0.842,-0.941 2.077,-1.471 3.353,-1.499l22.5,0c0.066,0.001 0.133,0.003 0.199,0.004Z" style="fill:#fff;fill-rule:nonzero;stroke:#000;stroke-width:1px;"/><path d="M200.233,34.67c9.032,0.013 18.062,0.174 27.096,0.283c1.761,0.017 1.02,-0.089 2.064,0.174l1.657,0.867c0.317,0.275 0.762,0.807 0.762,0.807c0.471,0.673 0.191,-0.211 0.681,1.34c0.665,2.108 0.472,4.476 0.56,6.793c0.208,5.433 0.564,10.944 -0.041,16.277c-0.151,1.331 -0.404,2.553 -1.39,3.69c-0.562,0.648 -0.143,0.225 -0.811,0.721l-1.051,0.552c-0.692,0.239 -0.126,0.148 -1.409,0.298c-6.023,0.669 -12.162,0.076 -18.219,-0.011c-0.78,-0.007 -0.12,0.148 -1.259,-0.126c-4.118,-0.992 -4.46,-8.943 1.367,-8.873c4.457,0.054 8.936,0.325 13.414,0.259l0.557,-0.012c0.132,-4.589 -0.008,-9.167 -0.205,-13.738l-0.002,-0.062c-9.29,-0.129 -18.577,-0.301 -27.854,-0.225l-0.807,0.009c0.102,10.245 -1.409,19.972 -0.079,28.79l0.003,0.022c10.804,0.185 21.74,-0.003 32.411,-0.044c0.847,-0.002 3.53,0.516 4.517,2.473c1.308,2.594 -0.522,6.325 -3.75,6.518c-5.396,0.323 -11.046,0.09 -16.501,0.115c-6.386,0.025 -12.774,0.032 -19.159,-0.109c0,0 -2.793,-0.303 -4.341,-2.179c-2.877,-3.487 -2.5,-8.391 -2.506,-12.61c-0.011,-9.142 0.913,-18.299 0.252,-26.863c0,0 -0.118,-0.296 0.105,-1.374l0.269,-0.805c0.197,-0.413 0.742,-1.158 0.742,-1.158c0.393,-0.423 0.074,-0.186 0.808,-0.722c0,0 2.197,-0.923 4.684,-1.003c2.476,-0.079 4.955,-0.075 7.435,-0.074Zm27.317,9.288c0,0 1.055,-0.003 -0.009,-0.003c-0.003,0 0.006,0.002 0.009,0.003Z" style="fill:#fff;fill-rule:nonzero;stroke:#000;stroke-width:1px;"/><path d="M245.64,4.53c2.193,0.338 3.898,2.217 3.985,4.469c0.008,22.697 0.243,45.37 0.25,68.08c0,0 -0.414,3.1 -2.658,4.107c-2.702,1.212 -6.219,-0.915 -6.342,-4.104c-0.007,-22.729 -0.242,-45.295 -0.25,-68.081c0,0 1.064,-4.773 5.015,-4.471Z" style="fill:#fff;fill-rule:nonzero;stroke:#000;stroke-width:1px;"/><path d="M388.879,49.516c0.831,0.094 1.056,0.193 1.485,0.388c3.532,1.607 2.667,7.488 2.706,12.472c0.022,3.22 0.024,6.441 -0.004,9.662l-0.004,0.386c10.815,0.24 21.812,-0.262 32.526,-0.421c3.746,-0.041 6.776,5.408 3.075,8.125c-1.348,0.989 -3.181,0.876 -4.98,0.914c-11.117,0.249 -22.305,0.908 -33.366,0.289c-1.49,-0.084 -3.005,-0.159 -4.269,-1.024c-0.43,-0.294 0.072,0.538 -1.197,-1.156l-0.462,-0.811c-0.129,-0.307 -0.318,-1.041 -0.318,-1.041c-0.083,-0.533 -0.065,-0.562 -0.073,-0.745c0.141,-7.373 0.031,-14.819 0.003,-22.137c-0.002,-1.458 1.162,-4.911 4.621,-4.915c0.086,0.004 0.171,0.009 0.257,0.014Z" style="fill:#fff;fill-rule:nonzero;stroke:#000;stroke-width:1px;"/><path d="M426.515,34.53c2.194,0.338 3.898,2.218 3.985,4.469c0.003,14.262 0.053,28.377 -0.044,42.894c-0.018,3.651 0.091,7.292 0.671,10.88c0.716,4.424 2.045,8.721 3.594,12.918c0,0 0.609,2.615 -0.618,4.255c-1.906,2.548 -6.494,2.081 -7.824,-1.137c-2.779,-7.526 -4.633,-15.445 -4.803,-23.467c-0.118,-5.542 0.029,-11.092 0.032,-16.652c0,-8.735 -0.004,-17.47 -0.007,-26.204l-0.001,-3.485c0,0 0.189,-2.186 1.505,-3.36c0.939,-0.837 2.193,-1.212 3.51,-1.111Z" style="fill:#fff;fill-rule:nonzero;stroke:#000;stroke-width:1px;"/><path d="M517.606,34.469c2.643,0.006 5.287,0.022 7.93,0.029l1.013,0.001l1.31,0.008c1.049,0.091 1.384,0.253 1.956,0.576c3.279,1.854 2.54,8.284 -2.218,8.417c-8.851,-0.005 -17.673,-0.056 -26.498,0.292l-0.474,0.02c-0.197,10.908 1.057,21.562 0.874,33.223c0,0 -1.102,4.386 -4.441,4.429c-2.388,0.031 -4.525,-2.05 -4.557,-4.57c0.173,-11.045 -1.271,-21.945 -0.856,-34.018c0.014,-0.39 0.033,-0.78 0.061,-1.169c0.196,-2.725 1.138,-6.026 4.391,-6.658c0.289,-0.056 0.344,-0.054 0.617,-0.076c0.922,-0.042 1.844,-0.083 2.767,-0.122c6.041,-0.251 12.08,-0.39 18.125,-0.382Z" style="fill:#fff;fill-rule:nonzero;stroke:#000;stroke-width:1px;"/><path d="M286.746,44.129c0.025,4.274 -0.044,8.548 -0.118,12.821c10.917,-0.079 21.916,0.465 32.892,0.052c0,0 2.865,0.084 4.453,2.205c2.383,3.182 1.668,7.641 1.443,10.98c-0.254,4.171 0.166,9.379 -4.854,10.722c-2.332,0.624 -4.989,0.016 -7.583,0.199c-9.704,0.683 -19.234,4.394 -26.512,10.776c0,0 -3.776,2.172 -6.149,-0.202c-2.01,-2.011 -1.332,-5.311 1.341,-7.527c9.588,-7.949 22.168,-12.239 34.671,-12.15c0,0 0.166,-2.814 0.283,-4.508c0.035,-0.571 0.048,-1.407 0.048,-1.407c-0.433,0.009 -0.865,0.016 -1.298,0.023c-11.091,0.14 -22.071,-0.272 -33.149,-0.113l-0.923,-0.082c-0.645,-0.146 -1.525,-0.6 -1.525,-0.6c-0.668,-0.441 -0.488,-0.317 -0.921,-0.759l-0.491,-0.633c-0.542,-0.895 -0.306,-0.185 -0.592,-1.361c-0.347,-1.428 -0.176,-2.926 -0.155,-4.417c0.1,-6.338 0.25,-12.672 0.044,-19.002c0,0 0.147,-2.197 1.367,-3.378c0.823,-0.798 1.53,-1.217 3.131,-1.268c12.698,0 25.423,0.435 38.089,0.025l0.889,-0.023c1.083,0.066 1.405,0.217 1.976,0.52c3.263,1.725 2.96,8.132 -1.936,8.475c-7.542,0.281 -15.074,0.009 -22.669,0.003l-11.757,0c0.002,0.21 0.004,0.419 0.005,0.629Z" style="fill:#fff;fill-rule:nonzero;stroke:#000;stroke-width:1px;"/><path d="M64.32,25.676c0,0.125 3.025,-4.944 5.243,-8.473" style="fill:none;stroke:#000;stroke-width:1px;stroke-linecap:round;stroke-miterlimit:1.5;"/><path d="M77.094,17.191c-0.112,-0.057 3.047,4.93 5.196,8.501" style="fill:none;stroke:#000;stroke-width:1px;stroke-linecap:round;stroke-miterlimit:1.5;"/></g></svg>